<?xml version="1.0" encoding="utf-8"?>
<svg viewBox="0 0 500 500" xmlns="http://www.w3.org/2000/svg">
  <g transform="matrix(10.395012, 0, 0, 12.437811, -950.412964, -43.833443)">
    <g/>
    <g transform="matrix(1, 0, 0, 1, 16.229713, 0.624219)">
      <path class="st2" d="M75.2,8.6c0-3.1,2.5-5.7,5.7-5.7h36.7c3.1,0,5.7,2.5,5.7,5.7v28.8c0,3.1-2.5,5.7-5.7,5.7H80.9 c-3.1,0-5.7-2.6-5.7-5.7V8.6z" style="clip-rule: evenodd; fill: none; fill-rule: evenodd; stroke: rgb(0, 71, 186); stroke-miterlimit: 3.8637; stroke-width: 0.9368px;"/>
      <g>
        <polygon class="st3" points="80.8,7.2 117.1,7.2 111.5,14.3 104.5,14.3 98.6,35.8 93.1,14.3 86,14.3 &#9;&#9;&#9;" style="clip-rule: evenodd; fill: rgb(0, 190, 214); fill-rule: evenodd; stroke: rgb(255, 255, 255); stroke-miterlimit: 3.8637; stroke-width: 0.7807px;"/>
        <g>
          <defs>
            <polygon id="SVGID_1_" points="80.2,39.4 118.9,39.4 111.5,14.3 104.1,14.3 98.6,35.6 93.1,14.3 86.3,14.3 &#9;&#9;&#9;&#9;&#9;"/>
          </defs>
          <polygon points="80.2,39.4 118.9,39.4 111.5,14.3 104.1,14.3 98.6,35.6 93.1,14.3 86.3,14.3 &#9;&#9;&#9;&#9;&#9;" style="overflow: visible; fill-rule: evenodd; clip-rule: evenodd; fill: rgb(0, 71, 186);"/>
          <clipPath id="SVGID_2_">
            <polygon points="80.2,39.4 118.9,39.4 111.5,14.3 104.1,14.3 98.6,35.6 93.1,14.3 86.3,14.3 &#9;&#9;&#9;&#9;&#9;" style="overflow: visible;"/>
          </clipPath>
          <g class="st4" style="clip-path: url('#SVGID_2_');">
            <line class="st5" x1="82.2" y1="18.7" x2="115.9" y2="18.7" style="clip-rule: evenodd; fill: none; fill-rule: evenodd; stroke: rgb(255, 255, 255); stroke-miterlimit: 3.8637; stroke-width: 0.5222px;"/>
            <line class="st5" x1="82.2" y1="22.1" x2="115.9" y2="22.1" style="clip-rule: evenodd; fill: none; fill-rule: evenodd; stroke: rgb(255, 255, 255); stroke-miterlimit: 3.8637; stroke-width: 0.5222px;"/>
            <line class="st5" x1="82.2" y1="25.1" x2="115.9" y2="25.1" style="clip-rule: evenodd; fill: none; fill-rule: evenodd; stroke: rgb(255, 255, 255); stroke-miterlimit: 3.8637; stroke-width: 0.5222px;"/>
            <line class="st5" x1="82.2" y1="27.9" x2="115.9" y2="27.9" style="clip-rule: evenodd; fill: none; fill-rule: evenodd; stroke: rgb(255, 255, 255); stroke-miterlimit: 3.8637; stroke-width: 0.5222px;"/>
            <line class="st5" x1="81.3" y1="30.5" x2="117" y2="30.5" style="clip-rule: evenodd; fill: none; fill-rule: evenodd; stroke: rgb(255, 255, 255); stroke-miterlimit: 3.8637; stroke-width: 0.5222px;"/>
            <line class="st5" x1="80.7" y1="32.9" x2="117.5" y2="32.9" style="clip-rule: evenodd; fill: none; fill-rule: evenodd; stroke: rgb(255, 255, 255); stroke-miterlimit: 3.8637; stroke-width: 0.5222px;"/>
            <line class="st5" x1="80.8" y1="35.3" x2="118" y2="35.3" style="clip-rule: evenodd; fill: none; fill-rule: evenodd; stroke: rgb(255, 255, 255); stroke-miterlimit: 3.8637; stroke-width: 0.5222px;"/>
            <line class="st5" x1="79.8" y1="37.3" x2="118.7" y2="37.3" style="clip-rule: evenodd; fill: none; fill-rule: evenodd; stroke: rgb(255, 255, 255); stroke-miterlimit: 3.8637; stroke-width: 0.5222px;"/>
          </g>
          <polygon points="80.2,39.4 118.9,39.4 111.5,14.3 104.1,14.3 98.6,35.6 93.1,14.3 86.3,14.3 &#9;&#9;&#9;&#9;&#9;" style="overflow: visible; fill-rule: evenodd; clip-rule: evenodd; fill: none; stroke: rgb(255, 255, 255); stroke-width: 0.7807; stroke-miterlimit: 3.8637;"/>
        </g>
      </g>
    </g>
  </g>
</svg>