<svg xmlns="http://www.w3.org/2000/svg" xmlns:xlink="http://www.w3.org/1999/xlink" width="1920" zoomAndPan="magnify" viewBox="0 0 1440 809.999993" height="1080" preserveAspectRatio="xMidYMid meet" version="1.0"><defs><g/><clipPath id="803a5c9e55"><path d="M 952 430 L 996 430 L 996 442.113281 L 952 442.113281 Z M 952 430 " clip-rule="nonzero"/></clipPath><clipPath id="37f7f56040"><path d="M 619 282.363281 L 821 282.363281 L 821 442.113281 L 619 442.113281 Z M 619 282.363281 " clip-rule="nonzero"/></clipPath><clipPath id="6aaf43b0db"><path d="M 660 346 L 779 346 L 779 349 L 660 349 Z M 660 346 " clip-rule="nonzero"/></clipPath><clipPath id="6ce835fecd"><path d="M 654.496094 418.621094 L 787.917969 418.621094 L 762.40625 331.996094 L 736.894531 331.996094 L 717.929688 405.507812 L 698.96875 331.996094 L 675.527344 331.996094 Z M 654.496094 418.621094 " clip-rule="nonzero"/></clipPath><clipPath id="4ee94bae0c"><path d="M 660 358 L 779 358 L 779 360 L 660 360 Z M 660 358 " clip-rule="nonzero"/></clipPath><clipPath id="cdb337924b"><path d="M 654.496094 418.621094 L 787.917969 418.621094 L 762.40625 331.996094 L 736.894531 331.996094 L 717.929688 405.507812 L 698.96875 331.996094 L 675.527344 331.996094 Z M 654.496094 418.621094 " clip-rule="nonzero"/></clipPath><clipPath id="311de04825"><path d="M 660 368 L 779 368 L 779 371 L 660 371 Z M 660 368 " clip-rule="nonzero"/></clipPath><clipPath id="e8a39662d8"><path d="M 654.496094 418.621094 L 787.917969 418.621094 L 762.40625 331.996094 L 736.894531 331.996094 L 717.929688 405.507812 L 698.96875 331.996094 L 675.527344 331.996094 Z M 654.496094 418.621094 " clip-rule="nonzero"/></clipPath><clipPath id="a914852663"><path d="M 660 378 L 779 378 L 779 380 L 660 380 Z M 660 378 " clip-rule="nonzero"/></clipPath><clipPath id="4aeb44fac3"><path d="M 654.496094 418.621094 L 787.917969 418.621094 L 762.40625 331.996094 L 736.894531 331.996094 L 717.929688 405.507812 L 698.96875 331.996094 L 675.527344 331.996094 Z M 654.496094 418.621094 " clip-rule="nonzero"/></clipPath><clipPath id="7dc3430b63"><path d="M 657 387 L 783 387 L 783 389 L 657 389 Z M 657 387 " clip-rule="nonzero"/></clipPath><clipPath id="7544ea4c51"><path d="M 654.496094 418.621094 L 787.917969 418.621094 L 762.40625 331.996094 L 736.894531 331.996094 L 717.929688 405.507812 L 698.96875 331.996094 L 675.527344 331.996094 Z M 654.496094 418.621094 " clip-rule="nonzero"/></clipPath><clipPath id="fc0ece437b"><path d="M 655 395 L 784 395 L 784 398 L 655 398 Z M 655 395 " clip-rule="nonzero"/></clipPath><clipPath id="7fc798736b"><path d="M 654.496094 418.621094 L 787.917969 418.621094 L 762.40625 331.996094 L 736.894531 331.996094 L 717.929688 405.507812 L 698.96875 331.996094 L 675.527344 331.996094 Z M 654.496094 418.621094 " clip-rule="nonzero"/></clipPath><clipPath id="110f82f061"><path d="M 655 403 L 786 403 L 786 406 L 655 406 Z M 655 403 " clip-rule="nonzero"/></clipPath><clipPath id="d4f68b6832"><path d="M 654.496094 418.621094 L 787.917969 418.621094 L 762.40625 331.996094 L 736.894531 331.996094 L 717.929688 405.507812 L 698.96875 331.996094 L 675.527344 331.996094 Z M 654.496094 418.621094 " clip-rule="nonzero"/></clipPath><clipPath id="3cb5469e94"><path d="M 654 410 L 788 410 L 788 413 L 654 413 Z M 654 410 " clip-rule="nonzero"/></clipPath><clipPath id="6f52d26be6"><path d="M 654.496094 418.621094 L 787.917969 418.621094 L 762.40625 331.996094 L 736.894531 331.996094 L 717.929688 405.507812 L 698.96875 331.996094 L 675.527344 331.996094 Z M 654.496094 418.621094 " clip-rule="nonzero"/></clipPath></defs><rect x="-144" width="1728" fill="#ffffff" y="-80.999999" height="971.999992" fill-opacity="1"/><g clip-path="url(#803a5c9e55)"><path stroke-linecap="butt" transform="matrix(3.44758, 0, 0, 3.451209, 377.999987, 282.643981)" fill="none" stroke-linejoin="miter" d="M 170.400312 51.500458 L 175.299582 51.500458 L 175.299582 66.499731 L 170.400312 66.499731 Z M 174.30024 48.199984 C 174.30024 49.000201 173.699728 49.699685 172.899801 49.699685 C 172.099874 49.699685 171.500495 49.000201 171.500495 48.199984 C 171.500495 47.399766 172.099874 46.700283 172.899801 46.700283 C 173.60002 46.700283 174.30024 47.399766 174.30024 48.199984 Z M 174.30024 48.199984 " stroke="#00bed6" stroke-width="0.686" stroke-opacity="1" stroke-miterlimit="3.864"/></g><g clip-path="url(#37f7f56040)"><path stroke-linecap="butt" transform="matrix(3.44758, 0, 0, 3.451209, 377.999987, 282.643981)" fill="none" stroke-linejoin="miter" d="M 75.199938 8.599954 C 75.199938 5.499818 77.700559 2.899959 80.900267 2.899959 L 117.599467 2.899959 C 120.699467 2.899959 123.299796 5.400215 123.299796 8.599954 L 123.299796 37.399873 C 123.299796 40.500009 120.800308 43.099868 117.599467 43.099868 L 80.900267 43.099868 C 77.800267 43.099868 75.199938 40.500009 75.199938 37.399873 Z M 75.199938 8.599954 " stroke="#0047ba" stroke-width="0.937" stroke-opacity="1" stroke-miterlimit="3.864"/></g><path stroke-linecap="butt" transform="matrix(3.44758, 0, 0, 3.451209, 377.999987, 282.643981)" fill-opacity="1" fill="#00bed6" fill-rule="evenodd" stroke-linejoin="miter" d="M 80.80056 7.199856 L 117.099796 7.199856 L 111.500307 14.29995 L 104.500379 14.29995 L 98.599501 35.799437 L 93.09972 14.29995 L 86.000085 14.29995 Z M 80.80056 7.199856 " stroke="#ffffff" stroke-width="0.781" stroke-opacity="1" stroke-miterlimit="3.864"/><path fill="#0047ba" d="M 654.496094 418.621094 L 787.917969 418.621094 L 762.40625 331.996094 L 736.894531 331.996094 L 717.929688 405.507812 L 698.96875 331.996094 L 675.527344 331.996094 Z M 654.496094 418.621094 " fill-opacity="1" fill-rule="evenodd"/><g clip-path="url(#6aaf43b0db)"><g clip-path="url(#6ce835fecd)"><path stroke-linecap="butt" transform="matrix(3.44758, 0, 0, 3.451209, 377.999987, 282.643981)" fill="none" stroke-linejoin="miter" d="M 82.199865 18.69945 L 115.899905 18.69945 " stroke="#ffffff" stroke-width="0.522" stroke-opacity="1" stroke-miterlimit="3.864"/></g></g><g clip-path="url(#4ee94bae0c)"><g clip-path="url(#cdb337924b)"><path stroke-linecap="butt" transform="matrix(3.44758, 0, 0, 3.451209, 377.999987, 282.643981)" fill="none" stroke-linejoin="miter" d="M 82.199865 22.099527 L 115.899905 22.099527 " stroke="#ffffff" stroke-width="0.522" stroke-opacity="1" stroke-miterlimit="3.864"/></g></g><g clip-path="url(#311de04825)"><g clip-path="url(#e8a39662d8)"><path stroke-linecap="butt" transform="matrix(3.44758, 0, 0, 3.451209, 377.999987, 282.643981)" fill="none" stroke-linejoin="miter" d="M 82.199865 25.100061 L 115.899905 25.100061 " stroke="#ffffff" stroke-width="0.522" stroke-opacity="1" stroke-miterlimit="3.864"/></g></g><g clip-path="url(#a914852663)"><g clip-path="url(#4aeb44fac3)"><path stroke-linecap="butt" transform="matrix(3.44758, 0, 0, 3.451209, 377.999987, 282.643981)" fill="none" stroke-linejoin="miter" d="M 82.199865 27.900257 L 115.899905 27.900257 " stroke="#ffffff" stroke-width="0.522" stroke-opacity="1" stroke-miterlimit="3.864"/></g></g><g clip-path="url(#7dc3430b63)"><g clip-path="url(#7544ea4c51)"><path stroke-linecap="butt" transform="matrix(3.44758, 0, 0, 3.451209, 377.999987, 282.643981)" fill="none" stroke-linejoin="miter" d="M 81.300231 30.500116 L 117.000088 30.500116 " stroke="#ffffff" stroke-width="0.522" stroke-opacity="1" stroke-miterlimit="3.864"/></g></g><g clip-path="url(#fc0ece437b)"><g clip-path="url(#7fc798736b)"><path stroke-linecap="butt" transform="matrix(3.44758, 0, 0, 3.451209, 377.999987, 282.643981)" fill="none" stroke-linejoin="miter" d="M 80.699719 32.899638 L 117.499759 32.899638 " stroke="#ffffff" stroke-width="0.522" stroke-opacity="1" stroke-miterlimit="3.864"/></g></g><g clip-path="url(#110f82f061)"><g clip-path="url(#d4f68b6832)"><path stroke-linecap="butt" transform="matrix(3.44758, 0, 0, 3.451209, 377.999987, 282.643981)" fill="none" stroke-linejoin="miter" d="M 80.80056 35.300291 L 118.000563 35.300291 " stroke="#ffffff" stroke-width="0.522" stroke-opacity="1" stroke-miterlimit="3.864"/></g></g><g clip-path="url(#3cb5469e94)"><g clip-path="url(#6f52d26be6)"><path stroke-linecap="butt" transform="matrix(3.44758, 0, 0, 3.451209, 377.999987, 282.643981)" fill="none" stroke-linejoin="miter" d="M 79.800084 37.30027 L 118.69965 37.30027 " stroke="#ffffff" stroke-width="0.522" stroke-opacity="1" stroke-miterlimit="3.864"/></g></g><path stroke-linecap="butt" transform="matrix(3.44758, 0, 0, 3.451209, 377.999987, 282.643981)" fill="none" stroke-linejoin="miter" d="M 80.200048 39.399851 L 118.900198 39.399851 L 111.500307 14.29995 L 104.100416 14.29995 L 98.599501 35.600232 L 93.09972 14.29995 L 86.300341 14.29995 Z M 80.200048 39.399851 " stroke="#ffffff" stroke-width="0.781" stroke-opacity="1" stroke-miterlimit="3.864"/><g fill="#0047ba" fill-opacity="1"><g transform="translate(464.561819, 512.819418)"><g><path d="M 4.796875 -55.265625 L 19.21875 -55.265625 L 34.4375 -18.140625 L 35.078125 -18.140625 L 50.3125 -55.265625 L 64.71875 -55.265625 L 64.71875 0 L 53.390625 0 L 53.390625 -35.96875 L 52.921875 -35.96875 L 38.625 -0.265625 L 30.90625 -0.265625 L 16.59375 -36.109375 L 16.140625 -36.109375 L 16.140625 0 L 4.796875 0 Z M 4.796875 -55.265625 "/></g></g></g><g fill="#0047ba" fill-opacity="1"><g transform="translate(534.782809, 512.819418)"><g><path d="M 14.328125 0 L 1.8125 0 L 20.890625 -55.265625 L 35.953125 -55.265625 L 55 0 L 42.484375 0 L 38.375 -12.609375 L 18.4375 -12.609375 Z M 21.40625 -21.71875 L 35.4375 -21.71875 L 28.640625 -42.640625 L 28.203125 -42.640625 Z M 21.40625 -21.71875 "/></g></g></g><g fill="#0047ba" fill-opacity="1"><g transform="translate(591.618091, 512.819418)"><g><path d="M 4.796875 0 L 4.796875 -55.265625 L 16.484375 -55.265625 L 16.484375 -30.90625 L 17.21875 -30.90625 L 37.109375 -55.265625 L 51.109375 -55.265625 L 30.609375 -30.53125 L 51.359375 0 L 37.375 0 L 22.234375 -22.71875 L 16.484375 -15.703125 L 16.484375 0 Z M 4.796875 0 "/></g></g></g><g fill="#0047ba" fill-opacity="1"><g transform="translate(644.027451, 512.819418)"><g><path d="M 4.796875 0 L 4.796875 -55.265625 L 26.609375 -55.265625 C 32.890625 -55.265625 37.757812 -53.628906 41.21875 -50.359375 C 44.6875 -47.085938 46.421875 -42.707031 46.421875 -37.21875 C 46.421875 -33.4375 45.578125 -30.203125 43.890625 -27.515625 C 42.210938 -24.835938 39.800781 -22.828125 36.65625 -21.484375 L 48.390625 0 L 35.484375 0 L 25.015625 -19.59375 L 16.484375 -19.59375 L 16.484375 0 Z M 16.484375 -28.984375 L 24.421875 -28.984375 C 31.066406 -28.984375 34.390625 -31.726562 34.390625 -37.21875 C 34.390625 -42.882812 31.050781 -45.71875 24.375 -45.71875 L 16.484375 -45.71875 Z M 16.484375 -28.984375 "/></g></g></g><g fill="#0047ba" fill-opacity="1"><g transform="translate(693.900011, 512.819418)"><g><path d="M 55.59375 -27.640625 C 55.59375 -21.609375 54.453125 -16.476562 52.171875 -12.25 C 49.898438 -8.019531 46.8125 -4.796875 42.90625 -2.578125 C 39.007812 -0.359375 34.613281 0.75 29.71875 0.75 C 24.800781 0.75 20.390625 -0.363281 16.484375 -2.59375 C 12.585938 -4.820312 9.503906 -8.054688 7.234375 -12.296875 C 4.960938 -16.535156 3.828125 -21.648438 3.828125 -27.640625 C 3.828125 -33.660156 4.960938 -38.785156 7.234375 -43.015625 C 9.503906 -47.242188 12.585938 -50.46875 16.484375 -52.6875 C 20.390625 -54.914062 24.800781 -56.03125 29.71875 -56.03125 C 34.613281 -56.03125 39.007812 -54.914062 42.90625 -52.6875 C 46.8125 -50.46875 49.898438 -47.242188 52.171875 -43.015625 C 54.453125 -38.785156 55.59375 -33.660156 55.59375 -27.640625 Z M 43.75 -27.640625 C 43.75 -33.503906 42.46875 -37.976562 39.90625 -41.0625 C 37.351562 -44.144531 33.957031 -45.6875 29.71875 -45.6875 C 25.46875 -45.6875 22.066406 -44.144531 19.515625 -41.0625 C 16.960938 -37.976562 15.6875 -33.503906 15.6875 -27.640625 C 15.6875 -21.785156 16.960938 -17.3125 19.515625 -14.21875 C 22.066406 -11.125 25.46875 -9.578125 29.71875 -9.578125 C 33.957031 -9.578125 37.351562 -11.125 39.90625 -14.21875 C 42.46875 -17.3125 43.75 -21.785156 43.75 -27.640625 Z M 43.75 -27.640625 "/></g></g></g><g fill="#0047ba" fill-opacity="1"><g transform="translate(753.326087, 512.819418)"><g/></g></g><g fill="#0047ba" fill-opacity="1"><g transform="translate(770.948797, 512.819418)"><g><path d="M 2.703125 -45.640625 L 2.703125 -55.265625 L 48.09375 -55.265625 L 48.09375 -45.640625 L 31.171875 -45.640625 L 31.171875 0 L 19.625 0 L 19.625 -45.640625 Z M 2.703125 -45.640625 "/></g></g></g><g fill="#0047ba" fill-opacity="1"><g transform="translate(821.73891, 512.819418)"><g><path d="M 4.796875 0 L 4.796875 -55.265625 L 42.046875 -55.265625 L 42.046875 -45.640625 L 16.484375 -45.640625 L 16.484375 -32.46875 L 40.125 -32.46875 L 40.125 -22.828125 L 16.484375 -22.828125 L 16.484375 -9.640625 L 42.15625 -9.640625 L 42.15625 0 Z M 4.796875 0 "/></g></g></g><g fill="#0047ba" fill-opacity="1"><g transform="translate(868.292008, 512.819418)"><g><path d="M 53.578125 -35.921875 L 41.75 -35.921875 C 41.300781 -38.960938 40.003906 -41.347656 37.859375 -43.078125 C 35.722656 -44.816406 33.050781 -45.6875 29.84375 -45.6875 C 25.5625 -45.6875 22.128906 -44.113281 19.546875 -40.96875 C 16.972656 -37.832031 15.6875 -33.390625 15.6875 -27.640625 C 15.6875 -21.734375 16.984375 -17.242188 19.578125 -14.171875 C 22.179688 -11.109375 25.578125 -9.578125 29.765625 -9.578125 C 32.878906 -9.578125 35.515625 -10.390625 37.671875 -12.015625 C 39.835938 -13.648438 41.195312 -15.941406 41.75 -18.890625 L 53.578125 -18.84375 C 53.160156 -15.457031 51.953125 -12.269531 49.953125 -9.28125 C 47.953125 -6.289062 45.238281 -3.867188 41.8125 -2.015625 C 38.382812 -0.171875 34.304688 0.75 29.578125 0.75 C 24.648438 0.75 20.242188 -0.363281 16.359375 -2.59375 C 12.484375 -4.820312 9.425781 -8.050781 7.1875 -12.28125 C 4.945312 -16.507812 3.828125 -21.628906 3.828125 -27.640625 C 3.828125 -33.660156 4.960938 -38.785156 7.234375 -43.015625 C 9.503906 -47.242188 12.582031 -50.46875 16.46875 -52.6875 C 20.351562 -54.914062 24.722656 -56.03125 29.578125 -56.03125 C 33.835938 -56.03125 37.679688 -55.242188 41.109375 -53.671875 C 44.546875 -52.097656 47.351562 -49.8125 49.53125 -46.8125 C 51.71875 -43.8125 53.066406 -40.179688 53.578125 -35.921875 Z M 53.578125 -35.921875 "/></g></g></g><g fill="#0047ba" fill-opacity="1"><g transform="translate(925.451124, 512.819418)"><g><path d="M 4.796875 0 L 4.796875 -55.265625 L 16.484375 -55.265625 L 16.484375 -32.46875 L 40.21875 -32.46875 L 40.21875 -55.265625 L 51.875 -55.265625 L 51.875 0 L 40.21875 0 L 40.21875 -22.828125 L 16.484375 -22.828125 L 16.484375 0 Z M 4.796875 0 "/></g></g></g><g fill="#00bed6" fill-opacity="1"><g transform="translate(461.203108, 509.46069)"><g><path d="M 4.796875 -55.265625 L 19.21875 -55.265625 L 34.4375 -18.140625 L 35.078125 -18.140625 L 50.3125 -55.265625 L 64.71875 -55.265625 L 64.71875 0 L 53.390625 0 L 53.390625 -35.96875 L 52.921875 -35.96875 L 38.625 -0.265625 L 30.90625 -0.265625 L 16.59375 -36.109375 L 16.140625 -36.109375 L 16.140625 0 L 4.796875 0 Z M 4.796875 -55.265625 "/></g></g></g><g fill="#00bed6" fill-opacity="1"><g transform="translate(531.424098, 509.46069)"><g><path d="M 14.328125 0 L 1.8125 0 L 20.890625 -55.265625 L 35.953125 -55.265625 L 55 0 L 42.484375 0 L 38.375 -12.609375 L 18.4375 -12.609375 Z M 21.40625 -21.71875 L 35.4375 -21.71875 L 28.640625 -42.640625 L 28.203125 -42.640625 Z M 21.40625 -21.71875 "/></g></g></g><g fill="#00bed6" fill-opacity="1"><g transform="translate(588.25938, 509.46069)"><g><path d="M 4.796875 0 L 4.796875 -55.265625 L 16.484375 -55.265625 L 16.484375 -30.90625 L 17.21875 -30.90625 L 37.109375 -55.265625 L 51.109375 -55.265625 L 30.609375 -30.53125 L 51.359375 0 L 37.375 0 L 22.234375 -22.71875 L 16.484375 -15.703125 L 16.484375 0 Z M 4.796875 0 "/></g></g></g><g fill="#00bed6" fill-opacity="1"><g transform="translate(640.66874, 509.46069)"><g><path d="M 4.796875 0 L 4.796875 -55.265625 L 26.609375 -55.265625 C 32.890625 -55.265625 37.757812 -53.628906 41.21875 -50.359375 C 44.6875 -47.085938 46.421875 -42.707031 46.421875 -37.21875 C 46.421875 -33.4375 45.578125 -30.203125 43.890625 -27.515625 C 42.210938 -24.835938 39.800781 -22.828125 36.65625 -21.484375 L 48.390625 0 L 35.484375 0 L 25.015625 -19.59375 L 16.484375 -19.59375 L 16.484375 0 Z M 16.484375 -28.984375 L 24.421875 -28.984375 C 31.066406 -28.984375 34.390625 -31.726562 34.390625 -37.21875 C 34.390625 -42.882812 31.050781 -45.71875 24.375 -45.71875 L 16.484375 -45.71875 Z M 16.484375 -28.984375 "/></g></g></g><g fill="#00bed6" fill-opacity="1"><g transform="translate(690.5413, 509.46069)"><g><path d="M 55.59375 -27.640625 C 55.59375 -21.609375 54.453125 -16.476562 52.171875 -12.25 C 49.898438 -8.019531 46.8125 -4.796875 42.90625 -2.578125 C 39.007812 -0.359375 34.613281 0.75 29.71875 0.75 C 24.800781 0.75 20.390625 -0.363281 16.484375 -2.59375 C 12.585938 -4.820312 9.503906 -8.054688 7.234375 -12.296875 C 4.960938 -16.535156 3.828125 -21.648438 3.828125 -27.640625 C 3.828125 -33.660156 4.960938 -38.785156 7.234375 -43.015625 C 9.503906 -47.242188 12.585938 -50.46875 16.484375 -52.6875 C 20.390625 -54.914062 24.800781 -56.03125 29.71875 -56.03125 C 34.613281 -56.03125 39.007812 -54.914062 42.90625 -52.6875 C 46.8125 -50.46875 49.898438 -47.242188 52.171875 -43.015625 C 54.453125 -38.785156 55.59375 -33.660156 55.59375 -27.640625 Z M 43.75 -27.640625 C 43.75 -33.503906 42.46875 -37.976562 39.90625 -41.0625 C 37.351562 -44.144531 33.957031 -45.6875 29.71875 -45.6875 C 25.46875 -45.6875 22.066406 -44.144531 19.515625 -41.0625 C 16.960938 -37.976562 15.6875 -33.503906 15.6875 -27.640625 C 15.6875 -21.785156 16.960938 -17.3125 19.515625 -14.21875 C 22.066406 -11.125 25.46875 -9.578125 29.71875 -9.578125 C 33.957031 -9.578125 37.351562 -11.125 39.90625 -14.21875 C 42.46875 -17.3125 43.75 -21.785156 43.75 -27.640625 Z M 43.75 -27.640625 "/></g></g></g><g fill="#00bed6" fill-opacity="1"><g transform="translate(749.967376, 509.46069)"><g/></g></g><g fill="#00bed6" fill-opacity="1"><g transform="translate(767.590086, 509.46069)"><g><path d="M 2.703125 -45.640625 L 2.703125 -55.265625 L 48.09375 -55.265625 L 48.09375 -45.640625 L 31.171875 -45.640625 L 31.171875 0 L 19.625 0 L 19.625 -45.640625 Z M 2.703125 -45.640625 "/></g></g></g><g fill="#00bed6" fill-opacity="1"><g transform="translate(818.380199, 509.46069)"><g><path d="M 4.796875 0 L 4.796875 -55.265625 L 42.046875 -55.265625 L 42.046875 -45.640625 L 16.484375 -45.640625 L 16.484375 -32.46875 L 40.125 -32.46875 L 40.125 -22.828125 L 16.484375 -22.828125 L 16.484375 -9.640625 L 42.15625 -9.640625 L 42.15625 0 Z M 4.796875 0 "/></g></g></g><g fill="#00bed6" fill-opacity="1"><g transform="translate(864.933297, 509.46069)"><g><path d="M 53.578125 -35.921875 L 41.75 -35.921875 C 41.300781 -38.960938 40.003906 -41.347656 37.859375 -43.078125 C 35.722656 -44.816406 33.050781 -45.6875 29.84375 -45.6875 C 25.5625 -45.6875 22.128906 -44.113281 19.546875 -40.96875 C 16.972656 -37.832031 15.6875 -33.390625 15.6875 -27.640625 C 15.6875 -21.734375 16.984375 -17.242188 19.578125 -14.171875 C 22.179688 -11.109375 25.578125 -9.578125 29.765625 -9.578125 C 32.878906 -9.578125 35.515625 -10.390625 37.671875 -12.015625 C 39.835938 -13.648438 41.195312 -15.941406 41.75 -18.890625 L 53.578125 -18.84375 C 53.160156 -15.457031 51.953125 -12.269531 49.953125 -9.28125 C 47.953125 -6.289062 45.238281 -3.867188 41.8125 -2.015625 C 38.382812 -0.171875 34.304688 0.75 29.578125 0.75 C 24.648438 0.75 20.242188 -0.363281 16.359375 -2.59375 C 12.484375 -4.820312 9.425781 -8.050781 7.1875 -12.28125 C 4.945312 -16.507812 3.828125 -21.628906 3.828125 -27.640625 C 3.828125 -33.660156 4.960938 -38.785156 7.234375 -43.015625 C 9.503906 -47.242188 12.582031 -50.46875 16.46875 -52.6875 C 20.351562 -54.914062 24.722656 -56.03125 29.578125 -56.03125 C 33.835938 -56.03125 37.679688 -55.242188 41.109375 -53.671875 C 44.546875 -52.097656 47.351562 -49.8125 49.53125 -46.8125 C 51.71875 -43.8125 53.066406 -40.179688 53.578125 -35.921875 Z M 53.578125 -35.921875 "/></g></g></g><g fill="#00bed6" fill-opacity="1"><g transform="translate(922.092413, 509.46069)"><g><path d="M 4.796875 0 L 4.796875 -55.265625 L 16.484375 -55.265625 L 16.484375 -32.46875 L 40.21875 -32.46875 L 40.21875 -55.265625 L 51.875 -55.265625 L 51.875 0 L 40.21875 0 L 40.21875 -22.828125 L 16.484375 -22.828125 L 16.484375 0 Z M 4.796875 0 "/></g></g></g></svg>