<?xml version="1.0" encoding="utf-8"?>
<!-- Generator: Adobe Illustrator 24.2.0, SVG Export Plug-In . SVG Version: 6.00 Build 0)  -->
<svg version="1.1" id="Layer_1" xmlns="http://www.w3.org/2000/svg" xmlns:xlink="http://www.w3.org/1999/xlink" x="0px" y="0px"
	 viewBox="0 0 198.4 70.9" style="enable-background:new 0 0 198.4 70.9;" xml:space="preserve">
<style type="text/css">
	.st0{fill-rule:evenodd;clip-rule:evenodd;fill:#0047BA;}
	.st1{fill-rule:evenodd;clip-rule:evenodd;fill:#00BED6;stroke:#00BED6;stroke-width:0.6859;stroke-miterlimit:3.8637;}
	.st2{fill-rule:evenodd;clip-rule:evenodd;fill:none;stroke:#0047BA;stroke-width:0.9368;stroke-miterlimit:3.8637;}
	.st3{fill-rule:evenodd;clip-rule:evenodd;fill:#00BED6;stroke:#FFFFFF;stroke-width:0.7807;stroke-miterlimit:3.8637;}
	.st4{clip-path:url(#SVGID_2_);}
	.st5{fill-rule:evenodd;clip-rule:evenodd;fill:none;stroke:#FFFFFF;stroke-width:0.5222;stroke-miterlimit:3.8637;}
</style>
<g>
	<g>
		<g>
			<path class="st0" d="M3.8,67.7h5.1l0.6-6.6c0.1-0.6,0.1-1.2,0.1-1.9h0.2c0,0.7,0.2,1.3,0.3,1.9l1.9,6.5h3.1l2.1-6.9
				c0.2-0.5,0.3-1,0.3-1.5h0.1l0.7,8.4h5.1L21,52.4h-5.4l-1.6,6c-0.2,0.7-0.3,1.4-0.4,2h-0.1l-2-8.1H6.1L3.8,67.7z"/>
			<path class="st0" d="M31.7,65.8h4l0.5,1.9h5.6l-5.2-15.3h-5.8l-5,15.3h5.6L31.7,65.8z M32.7,62.2l1-4.7h0.2
				c0.1,0.7,0.2,1.3,0.3,2l0.6,2.7H32.7z"/>
			<path class="st0" d="M44.8,67.7h5.1l-0.1-6.4h0.1c0.1,0.6,0.6,1.2,0.9,1.8l2.5,4.6h6.1l-5-7.9l4.5-7.5h-5.8l-2.5,4.9
				c-0.3,0.5-0.6,1.1-0.7,1.7h-0.1l0.1-6.7h-5.1V67.7z"/>
			<path class="st0" d="M62.4,67.7h5.2v-4.9h0.1l2.3,4.9H76l-3.2-5c-0.3-0.4-0.6-0.7-0.9-0.9v-0.1c2-0.7,2.8-1.7,2.8-4
				c0-3.9-2.8-5.3-6-5.3h-6.4V67.7z M67.5,56.6h0.4c0.9,0,1.7,0.1,1.7,1.3c0,1.1-0.9,1.3-1.7,1.3h-0.4V56.6z"/>
			<path class="st0" d="M86.3,52.1c-4.4,0-8,3.1-8,8c0,4.9,3.6,7.9,8,7.9c4.4,0,8-3,8-7.9C94.3,55.3,90.7,52.1,86.3,52.1z
				 M86.3,57.2c1.7,0,2.7,1.4,2.7,3c0,1.8-1.1,3-2.7,3c-1.6,0-2.7-1.2-2.7-3C83.6,58.6,84.6,57.2,86.3,57.2z"/>
			<polygon class="st0" points="106.8,57.4 109.7,57.2 109.7,67.7 115,67.7 115,57.2 117.9,57.4 117.9,52.4 106.8,52.4 			"/>
			<polygon class="st0" points="121.1,67.7 131,67.7 131,63.5 126.4,63.5 126.4,62 130.4,62 130.4,58 126.4,58 126.4,56.6 
				130.8,56.6 130.8,52.4 121.1,52.4 			"/>
			<path class="st0" d="M135,67.7h5.1l-0.1-6.4h0.1c0.1,0.6,0.6,1.2,0.9,1.8l2.5,4.6h6.1l-5-7.9l4.5-7.5h-5.8l-2.5,4.9
				c-0.3,0.5-0.6,1.1-0.7,1.7H140l0.1-6.7H135V67.7z"/>
			<path class="st0" d="M152.5,67.7h5v-5c0-1-0.2-2-0.3-3.1h0.2l4.6,8.1h5V52.4h-5V57c0,1.3,0.2,2.6,0.4,3.9h-0.2l-4.7-8.5h-5.1
				V67.7z"/>
			<path class="st0" d="M171.3,67.7h5.3V52.4h-5.3V67.7z M173.9,47.6c-0.9,0-1.6,0.8-1.6,1.7c0,0.9,0.7,1.7,1.6,1.7
				c0.9,0,1.6-0.8,1.6-1.7C175.5,48.4,174.8,47.6,173.9,47.6z"/>
			<path class="st0" d="M180.9,67.7h5.1l-0.1-6.4h0.1c0.1,0.6,0.6,1.2,0.9,1.8l2.5,4.6h6.1l-5-7.9l4.5-7.5h-5.8l-2.5,4.9
				c-0.3,0.5-0.6,1.1-0.7,1.7h-0.1l0.1-6.7h-5.1V67.7z"/>
		</g>
		<g>
			<path class="st1" d="M5.2,51.5h5.1l2,8.1h0.4l0-0.2c0.1-0.7,0.2-1.4,0.4-2l1.6-5.9h5.1l2.3,15h-4.7l-0.7-8.4h-0.4
				c-0.1,0.6-0.2,1.2-0.4,1.7l-2.1,6.8h-2.8l-1.8-6.4c-0.1-0.6-0.3-1.2-0.3-1.9l0-0.2H8.4l0,0.2c0,0.6-0.1,1.2-0.1,1.8l-0.6,6.4H2.9
				L5.2,51.5z"/>
			<path class="st1" d="M30.1,66.5h-5.2l4.9-15h5.6l5.1,15h-5.2l-0.5-1.9h-4.3L30.1,66.5z M34,61.3l-0.7-2.9c-0.1-0.6-0.2-1.3-0.3-2
				l0-0.2h-0.5l-1,5H34z"/>
			<path class="st1" d="M43.9,51.5h4.8l-0.1,6.7H49l0-0.1c0.1-0.3,0.2-0.6,0.3-0.9c0.1-0.3,0.3-0.6,0.4-0.8l2.5-4.8h5.3l-4.4,7.3
				l4.9,7.7h-5.7l-2.5-4.5c-0.2-0.3-0.3-0.6-0.5-0.9c-0.2-0.3-0.3-0.6-0.4-0.9l0-0.1h-0.4l0.1,6.4h-4.8V51.5z"/>
			<path class="st1" d="M61.5,51.5h6.2c3.2,0,5.9,1.4,5.9,5.2c0,2.2-0.8,3.2-2.7,3.8l-0.1,0.4c0.2,0.2,0.3,0.3,0.5,0.4
				c0.1,0.1,0.3,0.3,0.4,0.5l3,4.7H69l-2.3-4.9h-0.4v4.9h-4.8V51.5z M66.3,58.3h0.5c0.9,0,1.9-0.1,1.9-1.5c0-1.4-1-1.5-1.9-1.5h-0.6
				V58.3z"/>
			<path class="st1" d="M93,59c0,4.8-3.5,7.7-7.8,7.7c-4.3,0-7.8-2.9-7.8-7.7c0-4.7,3.5-7.8,7.8-7.8C89.5,51.3,93,54.3,93,59z
				 M82.3,59.1c0,1.8,1.2,3.1,2.9,3.1c1.7,0,2.9-1.3,2.9-3.1c0-1.7-1.1-3.2-2.9-3.2C83.4,55.9,82.3,57.4,82.3,59.1z"/>
			<polygon class="st1" points="106,51.5 116.7,51.5 116.7,56.1 113.8,56 113.8,66.5 108.9,66.5 108.9,56 106,56.1 			"/>
			<polygon class="st1" points="120.2,51.5 129.6,51.5 129.6,55.3 125.1,55.3 125.1,57.2 129.2,57.2 129.2,60.8 125.1,60.8 
				125.1,62.6 129.7,62.6 129.7,66.5 120.2,66.5 			"/>
			<path class="st1" d="M134.1,51.5h4.8l-0.1,6.7h0.4l0-0.1c0.1-0.3,0.2-0.6,0.3-0.9c0.1-0.3,0.3-0.6,0.4-0.8l2.5-4.8h5.3l-4.4,7.3
				l4.9,7.7h-5.7l-2.5-4.5c-0.1-0.3-0.3-0.6-0.5-0.9c-0.2-0.3-0.3-0.6-0.4-0.9l0-0.1h-0.4l0.1,6.4h-4.8V51.5z"/>
			<path class="st1" d="M151.7,51.5h4.8l4.7,8.5h0.5l0-0.2c-0.2-1.3-0.4-2.6-0.4-3.9v-4.4h4.7v15h-4.8l-4.6-8.1H156l0,0.2
				c0.2,1,0.3,2,0.3,3v4.8h-4.7V51.5z"/>
			<path class="st1" d="M170.4,51.5h4.9v15h-4.9V51.5z M174.3,48.2c0,0.8-0.6,1.5-1.4,1.5c-0.8,0-1.4-0.7-1.4-1.5
				c0-0.8,0.6-1.5,1.4-1.5C173.6,46.7,174.3,47.4,174.3,48.2z"/>
			<path class="st1" d="M180,51.5h4.8l-0.1,6.7h0.4l0-0.1c0.1-0.3,0.2-0.6,0.3-0.9c0.1-0.3,0.3-0.6,0.4-0.8l2.5-4.8h5.3l-4.4,7.3
				l4.9,7.7h-5.7l-2.5-4.5c-0.2-0.3-0.4-0.6-0.5-0.9c-0.2-0.3-0.3-0.6-0.4-0.9l0-0.1h-0.4l0.1,6.4H180V51.5z"/>
		</g>
	</g>
	<g>
		<path class="st2" d="M75.2,8.6c0-3.1,2.5-5.7,5.7-5.7h36.7c3.1,0,5.7,2.5,5.7,5.7v28.8c0,3.1-2.5,5.7-5.7,5.7H80.9
			c-3.1,0-5.7-2.6-5.7-5.7V8.6z"/>
		<g>
			<polygon class="st3" points="80.8,7.2 117.1,7.2 111.5,14.3 104.5,14.3 98.6,35.8 93.1,14.3 86,14.3 			"/>
			<g>
				<defs>
					<polygon id="SVGID_1_" points="80.2,39.4 118.9,39.4 111.5,14.3 104.1,14.3 98.6,35.6 93.1,14.3 86.3,14.3 					"/>
				</defs>
				<use xlink:href="#SVGID_1_"  style="overflow:visible;fill-rule:evenodd;clip-rule:evenodd;fill:#0047BA;"/>
				<clipPath id="SVGID_2_">
					<use xlink:href="#SVGID_1_"  style="overflow:visible;"/>
				</clipPath>
				<g class="st4">
					<line class="st5" x1="82.2" y1="18.7" x2="115.9" y2="18.7"/>
					<line class="st5" x1="82.2" y1="22.1" x2="115.9" y2="22.1"/>
					<line class="st5" x1="82.2" y1="25.1" x2="115.9" y2="25.1"/>
					<line class="st5" x1="82.2" y1="27.9" x2="115.9" y2="27.9"/>
					<line class="st5" x1="81.3" y1="30.5" x2="117" y2="30.5"/>
					<line class="st5" x1="80.7" y1="32.9" x2="117.5" y2="32.9"/>
					<line class="st5" x1="80.8" y1="35.3" x2="118" y2="35.3"/>
					<line class="st5" x1="79.8" y1="37.3" x2="118.7" y2="37.3"/>
				</g>
				
					<use xlink:href="#SVGID_1_"  style="overflow:visible;fill-rule:evenodd;clip-rule:evenodd;fill:none;stroke:#FFFFFF;stroke-width:0.7807;stroke-miterlimit:3.8637;"/>
			</g>
		</g>
	</g>
</g>
</svg>
